<svg xmlns="http://www.w3.org/2000/svg" version="1.1" xmlns:xlink="http://www.w3.org/1999/xlink" xmlns:svgjs="http://svgjs.com/svgjs" width="512" height="512" x="0" y="0" viewBox="0 0 60 60" style="enable-background:new 0 0 512 512" xml:space="preserve" class=""><g><path d="M58.4 20.3 53 16.251V4a4 4 0 0 0-4-4H11a4 4 0 0 0-4 4v12.251L1.6 20.3A4.02 4.02 0 0 0 0 23.5V56a4 4 0 0 0 4 4h52a4 4 0 0 0 4-4V23.5a4.018 4.018 0 0 0-1.6-3.2Zm-.6 36.55L36 40.5 58 24v32a1.973 1.973 0 0 1-.2.85Zm-.6-34.95c.045.034.079.078.12.114L53 25.252v-6.5ZM11 2h38a2 2 0 0 1 2 2v22.751l-16.671 12.5-1.947-1.46a3.978 3.978 0 0 0-4.762 0l-1.95 1.462L9 26.751V4a2 2 0 0 1 2-2ZM2.2 56.85A1.973 1.973 0 0 1 2 56V24l22 16.5ZM7 18.75v6.5l-4.319-3.237c.041-.037.074-.08.119-.114ZM4 58l24.821-18.611a1.971 1.971 0 0 1 2.36 0L56 58H4Z" fill="#000000" data-original="#000000" class=""></path><path d="m26.287 13.739-.457 2.79a1.259 1.259 0 0 0 .521 1.244 1.232 1.232 0 0 0 1.314.072L30 16.558l2.332 1.285a1.235 1.235 0 0 0 1.317-.07 1.259 1.259 0 0 0 .521-1.244l-.457-2.79 1.927-1.968a1.271 1.271 0 0 0 .3-1.292 1.255 1.255 0 0 0-1-.846l-2.623-.4-1.186-2.507a1.244 1.244 0 0 0-2.261 0l-1.182 2.507-2.626.4a1.255 1.255 0 0 0-1 .846 1.269 1.269 0 0 0 .3 1.292Zm2.213-2.607a1.007 1.007 0 0 0 .769-.568L30 9.018l.724 1.537a1 1 0 0 0 .774.577l1.713.261L31.93 12.7a1 1 0 0 0-.273.861l.293 1.787-1.4-.772a1.2 1.2 0 0 0-1.082-.011l-1.419.782.293-1.786a1 1 0 0 0-.273-.861l-1.281-1.309ZM39.287 16.739l-.457 2.79a1.259 1.259 0 0 0 .521 1.244 1.232 1.232 0 0 0 1.314.072L43 19.558l2.332 1.285a1.235 1.235 0 0 0 1.317-.07 1.259 1.259 0 0 0 .521-1.244l-.457-2.79 1.927-1.968a1.271 1.271 0 0 0 .3-1.292 1.255 1.255 0 0 0-1-.846l-2.623-.4-1.186-2.507a1.244 1.244 0 0 0-2.261 0l-1.182 2.509-2.626.4a1.255 1.255 0 0 0-1 .846 1.269 1.269 0 0 0 .3 1.292Zm2.213-2.607a1.007 1.007 0 0 0 .769-.568L43 12.018l.724 1.537a1 1 0 0 0 .774.577l1.713.261L44.93 15.7a1 1 0 0 0-.273.861l.293 1.787-1.4-.772a1.2 1.2 0 0 0-1.082-.011l-1.419.782.293-1.786a1 1 0 0 0-.273-.861l-1.281-1.309ZM13.287 16.739l-.457 2.79a1.259 1.259 0 0 0 .521 1.244 1.232 1.232 0 0 0 1.314.072L17 19.558l2.332 1.285a1.235 1.235 0 0 0 1.317-.07 1.259 1.259 0 0 0 .521-1.244l-.457-2.79 1.927-1.968a1.271 1.271 0 0 0 .295-1.292 1.255 1.255 0 0 0-1-.846l-2.623-.4-1.181-2.507a1.244 1.244 0 0 0-2.261 0l-1.182 2.509-2.626.4a1.255 1.255 0 0 0-1 .846 1.269 1.269 0 0 0 .3 1.292Zm2.213-2.607a1.007 1.007 0 0 0 .769-.568L17 12.018l.724 1.537a1 1 0 0 0 .774.577l1.713.261L18.93 15.7a1 1 0 0 0-.273.861l.293 1.787-1.4-.772a1.2 1.2 0 0 0-1.082-.011l-1.419.782.293-1.786a1 1 0 0 0-.273-.861l-1.281-1.309ZM44 25H16a1 1 0 0 0 0 2h28a1 1 0 0 0 0-2ZM38 30H22a1 1 0 0 0 0 2h16a1 1 0 0 0 0-2Z" fill="#000000" data-original="#000000" class=""></path></g></svg>