<svg xmlns="http://www.w3.org/2000/svg" version="1.1" xmlns:xlink="http://www.w3.org/1999/xlink" xmlns:svgjs="http://svgjs.com/svgjs" width="512" height="512" x="0" y="0" viewBox="0 0 64 64" style="enable-background:new 0 0 512 512" xml:space="preserve" class=""><g><path d="M19 7h3.191l2.572 12H22a3 3 0 0 0 0 6h2.184A2.966 2.966 0 0 0 24 26a3 3 0 0 0 6 0 2.966 2.966 0 0 0-.184-1h4.368A2.966 2.966 0 0 0 34 26a3 3 0 0 0 6 0 2.966 2.966 0 0 0-.184-1H45a1 1 0 0 0 0-2H22a1 1 0 0 1 0-2h18a1 1 0 0 0 .9-.553l5-10A1 1 0 0 0 45 9H24.666l-.688-3.209A1 1 0 0 0 23 5h-4a1 1 0 0 0 0 2Zm9 19a1 1 0 1 1-1-1 1 1 0 0 1 1 1Zm10 0a1 1 0 1 1-1-1 1 1 0 0 1 1 1Zm5.382-15-4 8H26.809l-1.715-8ZM15 34h34a1 1 0 0 0 0-2H15a1 1 0 0 0 0 2ZM15 39h34a1 1 0 0 0 0-2H15a1 1 0 0 0 0 2ZM15 44h34a1 1 0 0 0 0-2H15a1 1 0 0 0 0 2ZM15 49h34a1 1 0 0 0 0-2H15a1 1 0 0 0 0 2ZM15 54h24a1 1 0 0 0 0-2H15a1 1 0 0 0 0 2ZM39 57H15a1 1 0 0 0 0 2h24a1 1 0 0 0 0-2Z" fill="#000000" data-original="#000000" class=""></path><path d="M55 53V1a1 1 0 0 0-1-1H10a1 1 0 0 0-1 1v62a1 1 0 0 0 1 1h34a1 1 0 0 0 .707-.293l10-10A1.111 1.111 0 0 0 55 53ZM11 2h42v50h-9a1 1 0 0 0-1 1v9H11Zm34 58.586V54h6.586Z" fill="#000000" data-original="#000000" class=""></path></g></svg>