<svg xmlns="http://www.w3.org/2000/svg" version="1.1" xmlns:xlink="http://www.w3.org/1999/xlink" xmlns:svgjs="http://svgjs.com/svgjs" width="512" height="512" x="0" y="0" viewBox="0 0 64 64" style="enable-background:new 0 0 512 512" xml:space="preserve" class=""><g><linearGradient id="a" x1="31.975" x2="31.975" y1="62.985" y2=".985" gradientUnits="userSpaceOnUse"><stop stop-opacity="1" stop-color="#9f2fff" offset="0"></stop><stop stop-opacity="1" stop-color="#1b1e1f" offset="1"></stop></linearGradient><path fill="url(#a)" d="M62.975 9.985c0-4.963-4.038-9-9-9-4.624 0-8.442 3.507-8.941 8h-4.059v-1c0-2.757-2.243-5-5-5h-5.184a2.996 2.996 0 0 0-2.816-2h-14a2.996 2.996 0 0 0-2.816 2H5.975c-2.757 0-5 2.243-5 5v44c0 2.757 2.243 5 5 5h25c0 1.654 1.346 3 3 3h1.142c.447 1.721 2 3 3.858 3s3.411-1.279 3.858-3h8.284c.447 1.721 2 3 3.858 3s3.411-1.279 3.858-3h1.142c1.654 0 3-1.346 3-3V46.652l-3.5-4.667h-4.5V18.926c4.493-.499 8-4.316 8-8.941zm-9-7c3.86 0 7 3.141 7 7s-3.14 7-7 7-7-3.141-7-7 3.14-7 7-7zm-5 51h-16v-14h4v4h8v-4h4zm-37.816-45a2.996 2.996 0 0 0 2.816 2h14a2.996 2.996 0 0 0 2.816-2h4.184v29h-4v13h-24v-42zm31.816 33h-4v-2h4zm-4-34v30h-2v-29c0-1.103-.897-2-2-2h-4v-2h5c1.654 0 3 1.346 3 3zm-26-4c0-.552.449-1 1-1h14c.551 0 1 .448 1 1v4c0 .552-.449 1-1 1h-14c-.551 0-1-.448-1-1zm-7 51c-1.654 0-3-1.346-3-3v-44c0-1.654 1.346-3 3-3h5v2h-4c-1.103 0-2 .897-2 2v42c0 1.103.897 2 2 2h24v2zm29.142 3h-1.142c-.551 0-1-.448-1-1v-1h3.382a3.984 3.984 0 0 0-1.24 2zm3.858 3c-1.103 0-2-.897-2-2s.897-2 2-2 2 .897 2 2-.897 2-2 2zm12.142-3h-8.284a3.976 3.976 0 0 0-1.24-2h10.764a3.984 3.984 0 0 0-1.24 2zm3.858 3c-1.103 0-2-.897-2-2s.897-2 2-2 2 .897 2 2-.897 2-2 2zm5-3h-1.142a3.976 3.976 0 0 0-1.24-2h3.382v1c0 .552-.449 1-1 1zm1-10.667v6.667h-10v-10h7.5zm-10-5.333v-4h-10v-27h4.059a9.012 9.012 0 0 0 7.941 7.941v23.059zm1-27.586-2.707-2.707 1.414-1.414 1.293 1.293 5.293-5.293 1.414 1.414zm-40.892 8.109-2.815-2.815 1.414-1.414 1.185 1.185 5.309-7.077 1.6 1.199zm21.892-7.523h-13v-2h13zm-2 2h2v2h-2zm-2 2h-9v-2h9zm4 4h-13v-2h13zM11.083 34.508l-2.815-2.815 1.414-1.414 1.185 1.185 5.309-7.077 1.6 1.199zm21.892-7.523h-13v-2h13zm-2 2h2v2h-2zm-2 2h-9v-2h9zm4 4h-13v-2h13zm-24 14h12v-10h-12zm2-8h8v6h-8zm12-2h6v2h-6zm0 4h6v2h-6zm0 4h6v2h-6z" data-original="url(#a)" class=""></path></g></svg>