<svg xmlns="http://www.w3.org/2000/svg" version="1.1" xmlns:xlink="http://www.w3.org/1999/xlink" xmlns:svgjs="http://svgjs.com/svgjs" width="512" height="512" x="0" y="0" viewBox="0 0 24 24" style="enable-background:new 0 0 512 512" xml:space="preserve" class=""><g><path fill="#ebebed" d="M3 3h7v7H3z" data-original="#ebebed" class=""></path><path fill="#000000" fill-rule="evenodd" d="M2 3a1 1 0 0 1 1-1h7a1 1 0 0 1 1 1v7a1 1 0 0 1-1 1H3a1 1 0 0 1-1-1zm2 1v5h5V4z" clip-rule="evenodd" data-original="#000000" class=""></path><path fill="#ebebed" d="M3 14h7v7H3z" data-original="#ebebed" class=""></path><path fill="#000000" fill-rule="evenodd" d="M2 14a1 1 0 0 1 1-1h7a1 1 0 0 1 1 1v7a1 1 0 0 1-1 1H3a1 1 0 0 1-1-1zm2 1v5h5v-5z" clip-rule="evenodd" data-original="#000000" class=""></path><path fill="#fa1228" d="M14 6.5A3.5 3.5 0 0 1 17.5 3" data-original="#fa1228"></path><path fill="#000000" fill-rule="evenodd" d="M17.5 4A2.5 2.5 0 0 0 15 6.5V9h2.5a2.5 2.5 0 0 0 0-5zM13 6.5a4.5 4.5 0 1 1 4.5 4.5H14a1 1 0 0 1-1-1z" clip-rule="evenodd" data-original="#000000" class=""></path><path fill="#ebebed" d="M14 14h7v7h-7z" data-original="#ebebed" class=""></path><path fill="#000000" fill-rule="evenodd" d="M13 14a1 1 0 0 1 1-1h7a1 1 0 0 1 1 1v7a1 1 0 0 1-1 1h-7a1 1 0 0 1-1-1zm2 1v5h5v-5z" clip-rule="evenodd" data-original="#000000" class=""></path></g></svg>