<svg xmlns="http://www.w3.org/2000/svg" version="1.1" xmlns:xlink="http://www.w3.org/1999/xlink" xmlns:svgjs="http://svgjs.com/svgjs" width="512" height="512" x="0" y="0" viewBox="0 0 64 64" style="enable-background:new 0 0 512 512" xml:space="preserve" class=""><g><path d="m60.378 31.71-4.607-6.32c-.015-.026-.025-.055-.041-.08-.012-.02-.032-.031-.045-.05a4.436 4.436 0 0 0-1.805-1.58l-7.64-3.713c.53-1.537.831-3.18.831-4.894C47.071 6.76 40.31 0 32 0S16.927 6.761 16.927 15.073c0 1.718.303 3.363.835 4.903L10.16 23.67c-.748.34-1.37.882-1.818 1.564-.014.02-.03.036-.042.056v.002L3.621 31.71a3.865 3.865 0 0 0 1.435 5.757l2.503 1.217V49.79c0 1.75 1.01 3.36 2.57 4.09l19.85 9.65c.6.31 1.28.47 2.03.47.72 0 1.4-.16 2-.46l19.86-9.65a4.56 4.56 0 0 0 2.57-4.1V38.685l2.502-1.217a3.859 3.859 0 0 0 2.063-2.543 3.862 3.862 0 0 0-.627-3.214zM31.998 2.066c7.174 0 13.009 5.835 13.009 13.008S39.172 28.08 31.999 28.08c-7.173 0-13.007-5.836-13.007-13.008S24.826 2.065 31.999 2.065zM5.96 35.613a1.803 1.803 0 0 1-.669-2.687l4.204-5.77 20.945 10.18-4.59 6.3a1.803 1.803 0 0 1-2.247.56zM30.98 61.72a.485.485 0 0 0-.07-.03l-19.89-9.67c-.85-.4-1.39-1.27-1.39-2.23V39.692L22.7 46.05a3.867 3.867 0 0 0 4.819-1.2l3.461-4.75v21.62zm1.023-25.924-2.426-1.178-15.122-7.356-3.485-1.696.07-.026 7.53-3.658c2.493 4.895 7.57 8.263 13.429 8.263 5.862 0 10.942-3.372 13.433-8.272l7.548 3.667c.024.008.04.016.055.024zM54.37 49.79c0 .96-.54 1.83-1.4 2.24L33.1 61.69l-.06.03V40.129l3.439 4.722a3.87 3.87 0 0 0 4.82 1.2l13.071-6.359zM59 34.425c-.128.52-.48.952-.96 1.188l-17.644 8.583a1.807 1.807 0 0 1-2.248-.56l-4.583-6.293 20.945-10.18 4.198 5.763c.317.433.422.98.293 1.5zM36.67 23.453a3.682 3.682 0 0 1-2.623-1.087L32 20.319l-2.048 2.047a3.712 3.712 0 0 1-5.245 0 3.713 3.713 0 0 1 0-5.246l2.048-2.047-2.048-2.048c-1.446-1.446-1.446-3.8 0-5.246s3.8-1.444 5.245 0L32 9.827l2.048-2.048c1.397-1.401 3.84-1.403 5.246 0a3.715 3.715 0 0 1 0 5.246l-2.048 2.048 2.048 2.047a3.715 3.715 0 0 1 0 5.246 3.689 3.689 0 0 1-2.623 1.087zM32 17.827c.264 0 .528.1.73.302l2.778 2.777c.62.621 1.705.621 2.326 0a1.648 1.648 0 0 0 0-2.326l-2.778-2.778a1.032 1.032 0 0 1 0-1.46l2.778-2.776a1.648 1.648 0 0 0 0-2.327c-.62-.621-1.705-.621-2.326 0l-2.778 2.777a1.032 1.032 0 0 1-1.46 0L28.492 9.24a1.648 1.648 0 0 0-2.326 0 1.648 1.648 0 0 0 0 2.327l2.777 2.777a1.032 1.032 0 0 1 0 1.46l-2.777 2.777a1.645 1.645 0 0 0 2.326 2.327l2.777-2.778c.202-.202.466-.302.73-.302z" fill="#000000" data-original="#000000"></path></g></svg>