<svg xmlns="http://www.w3.org/2000/svg" version="1.1" xmlns:xlink="http://www.w3.org/1999/xlink" xmlns:svgjs="http://svgjs.com/svgjs" width="512" height="512" x="0" y="0" viewBox="0 0 60 60" style="enable-background:new 0 0 512 512" xml:space="preserve" class=""><g><path d="M58 27h-3a2 2 0 0 0-2 2h-7.143A3.992 3.992 0 0 0 46 28V4a4 4 0 0 0-4-4H18a4 4 0 0 0-4 4v24a3.992 3.992 0 0 0 .143 1H7a2 2 0 0 0-2-2H2a2 2 0 0 0-2 2v15a2 2 0 0 0 2 2h3a2 2 0 0 0 2-1.954 20.676 20.676 0 0 1 5.711 1.445 3.517 3.517 0 0 0 .877 4.454 3.481 3.481 0 0 0 2.161.746 3.594 3.594 0 0 0 .451-.049v.062a3.5 3.5 0 0 0 3.471 3.096 3.419 3.419 0 0 0 .451-.05 3.461 3.461 0 0 0 3.468 3.14 3.561 3.561 0 0 0 .459-.051 3.5 3.5 0 0 0 6.226 1.83l.936-1.185c1.062.914 1.694 1.5 1.7 1.5a3.5 3.5 0 0 0 5.974-2.484v-.035a.308.308 0 0 1 .043 0 3.51 3.51 0 0 0 3.487-3.5v-.041h.034a3.489 3.489 0 0 0 3.506-3.493v-.039h.034a3.5 3.5 0 0 0 2.482-1.028 3.6 3.6 0 0 0 1.038-2.639 3.343 3.343 0 0 0-.228-1.074A16.6 16.6 0 0 1 53 44.035 2 2 0 0 0 55 46h3a2 2 0 0 0 2-2V29a2 2 0 0 0-2-2ZM5 44H2V29h3Zm28.239-12.355a2 2 0 0 0-2.51.172l-5.09 4.73a1.532 1.532 0 0 1-2.618-.947 1.535 1.535 0 0 1 .355-1.171l6.018-6.338a3.58 3.58 0 0 1 4.107-.717l6.569 3.3a2.94 2.94 0 0 0 1.35.326H53v11.028a17.968 17.968 0 0 0-5.046.947c-3.981-3.396-14.247-10.985-14.715-11.33ZM25 2h10v8.787a.2.2 0 0 1-.107.184.2.2 0 0 1-.212 0l-4.166-2.5a1 1 0 0 0-1.03 0l-4.166 2.5a.2.2 0 0 1-.212 0 .2.2 0 0 1-.107-.184Zm-9 26V4a2 2 0 0 1 2-2h5v8.787a2.184 2.184 0 0 0 1.122 1.924 2.186 2.186 0 0 0 2.227-.028L30 10.492l3.651 2.191A2.211 2.211 0 0 0 37 10.787V2h5a2 2 0 0 1 2 2v24a1.982 1.982 0 0 1-.274 1H41.42a.961.961 0 0 1-.441-.1l-6.57-3.3a5.4 5.4 0 0 0-2.469-.6 5.533 5.533 0 0 0-2.735.732 5.592 5.592 0 0 0-2.2-.681V23a2 2 0 0 0-2-2H20a2 2 0 0 0-2 2v3a2 2 0 0 0 1.416 1.9l-1.986 1a.955.955 0 0 1-.43.1h-.726A1.982 1.982 0 0 1 16 28Zm7.2-2H20v-3h5v2.224a4.889 4.889 0 0 0-.979.363Zm-8.376 22.377a1.515 1.515 0 0 1-.248-2.118l2.268-2.867a1.516 1.516 0 0 1 1.187-.571 1.493 1.493 0 0 1 .928.321 1.509 1.509 0 0 1 .247 2.108l-2.276 2.876a1.509 1.509 0 0 1-2.106.251Zm3.92 3.1a1.5 1.5 0 0 1-.561-1.007 1.472 1.472 0 0 1 .313-1.1l2.9-3.662a1.5 1.5 0 0 1 2.351 1.86l-2.9 3.661a1.5 1.5 0 0 1-2.103.248Zm3.921 3.1a1.511 1.511 0 0 1-.251-2.106l2.292-2.892a1.506 1.506 0 0 1 1.169-.555 1.5 1.5 0 0 1 1.173 2.423l-2.274 2.882a1.522 1.522 0 0 1-2.109.248Zm7.689.764-1.646 2.086a1.5 1.5 0 0 1-2.365-1.855L28 53.483a1.513 1.513 0 0 1 1.185-.572 1.471 1.471 0 0 1 .92.321 1.5 1.5 0 0 1 .25 2.105Zm16.7-8.388a1.505 1.505 0 0 1-2.126 0 1 1 0 0 0-1.707.708.989.989 0 0 0 .293.706 1.5 1.5 0 0 1 0 2.122 1.521 1.521 0 0 1-2.134 0 1 1 0 1 0-1.406 1.422 1.5 1.5 0 0 1-1.054 2.554 1.492 1.492 0 0 1-1.062-.442 1 1 0 0 0-1.414 1.415 1.5 1.5 0 0 1 0 2.121 1.528 1.528 0 0 1-2.157-.023 72.518 72.518 0 0 0-1.927-1.7 3.5 3.5 0 0 0-1.009-4.168 3.443 3.443 0 0 0-2.018-.742 3.51 3.51 0 0 0-1.3-3.154 3.458 3.458 0 0 0-2-.734 3.573 3.573 0 0 0 .007-.8 3.5 3.5 0 0 0-3.879-3.074 3.543 3.543 0 0 0-.789.194 3.478 3.478 0 0 0-1.172-1.784 3.52 3.52 0 0 0-4.924.574l-1.335 1.69A23.105 23.105 0 0 0 7 42.039V31h10a2.933 2.933 0 0 0 1.339-.316l6.59-3.315a3.5 3.5 0 0 1 2.577-.2l-5.6 5.9a3.55 3.55 0 0 0 5.123 4.911l5.036-4.717c.115.085 11.526 8.519 15.032 11.614a1.257 1.257 0 0 1 .412.911 1.6 1.6 0 0 1-.456 1.165ZM58 44h-3V29h3Z" fill="#000000" data-original="#000000" class=""></path></g></svg>