<svg xmlns="http://www.w3.org/2000/svg" version="1.1" xmlns:xlink="http://www.w3.org/1999/xlink" xmlns:svgjs="http://svgjs.com/svgjs" width="512" height="512" x="0" y="0" viewBox="0 0 24 24" style="enable-background:new 0 0 512 512" xml:space="preserve" class=""><g><path d="M17.5 24c-3.584 0-6.5-2.916-6.5-6.5s2.916-6.5 6.5-6.5 6.5 2.916 6.5 6.5-2.916 6.5-6.5 6.5zm0-12c-3.032 0-5.5 2.468-5.5 5.5s2.468 5.5 5.5 5.5 5.5-2.468 5.5-5.5-2.468-5.5-5.5-5.5z" fill="#000000" data-original="#000000" class=""></path><path d="M17.5 21a.502.502 0 0 1-.354-.146l-3-3a.5.5 0 0 1 .707-.707l2.646 2.646 2.646-2.646a.5.5 0 0 1 .707.707l-3 3A.494.494 0 0 1 17.5 21z" fill="#000000" data-original="#000000" class=""></path><path d="M17.5 20.75a.5.5 0 0 1-.5-.5V14.5a.5.5 0 0 1 1 0v5.75a.5.5 0 0 1-.5.5zM10 8a.513.513 0 0 1-.173-.031l-9.5-3.5a.5.5 0 0 1 0-.938l9.5-3.5a.502.502 0 0 1 .346 0l9.5 3.5a.5.5 0 0 1 0 .938l-9.5 3.5A.513.513 0 0 1 10 8zM1.946 4 10 6.967 18.054 4 10 1.033z" fill="#000000" data-original="#000000" class=""></path><path d="M8.62 19.49a.498.498 0 0 1-.173-.031l-8.12-2.99A.5.5 0 0 1 0 16V4a.5.5 0 0 1 1 0v11.651l7.793 2.87a.5.5 0 0 1-.173.969zM19.5 9a.5.5 0 0 1-.5-.5V4a.5.5 0 0 1 1 0v4.5a.5.5 0 0 1-.5.5zM10 13.03a.5.5 0 0 1-.5-.5V7.5a.5.5 0 0 1 1 0v5.03a.5.5 0 0 1-.5.5z" fill="#000000" data-original="#000000" class=""></path></g></svg>