<svg xmlns="http://www.w3.org/2000/svg" version="1.1" xmlns:xlink="http://www.w3.org/1999/xlink" xmlns:svgjs="http://svgjs.com/svgjs" width="512" height="512" x="0" y="0" viewBox="0 0 512 512" style="enable-background:new 0 0 512 512" xml:space="preserve" class=""><g><path d="M473.399 391.225C497.855 351.985 512 305.648 512 255.99 512 114.596 397.394 0 256 0S0 114.596 0 255.99C0 397.425 114.606 512 256 512c49.659 0 96.006-14.15 135.254-38.619L503.46 503.44l-30.061-112.215zM256 119.388c17.746 0 32.143 14.387 32.143 32.143 0 17.746-14.387 32.143-32.143 32.143s-32.143-14.387-32.143-32.143 14.397-32.143 32.143-32.143zm56.248 273.234H199.752v-48.22h24.105v-96.43h-24.105v-48.21h88.392V344.402h24.105v48.22z" fill="#000000" data-original="#000000" class=""></path></g></svg>