<svg xmlns="http://www.w3.org/2000/svg" version="1.1" xmlns:xlink="http://www.w3.org/1999/xlink" xmlns:svgjs="http://svgjs.com/svgjs" width="512" height="512" x="0" y="0" viewBox="0 0 468 468" style="enable-background:new 0 0 512 512" xml:space="preserve" class=""><g><path d="M420.441 417.452H47.559a8 8 0 0 1 0-16h372.882a8 8 0 0 1 0 16zM464.564 318.755l-16.04-186.002C447.266 118.163 435.273 107 420.628 107H337V85h64.964c4.418 0 8.036-3.618 8.036-8.037V8c0-4.418-3.618-8-8.036-8H256.705C252.286 0 249 3.582 249 8v68.963c0 4.418 3.286 8.037 7.705 8.037H321v22h-92.024a8 8 0 0 0 0 16h191.652c6.276 0 11.416 4.876 11.956 11.129l16.04 185.922c.377 4.367 4.304 7.654 8.658 7.342 4.344-.31 7.653-4.342 7.282-8.638zM265 16h129v53H265z" fill="#000000" data-original="#000000"></path><path d="M460 351H16.72l18.695-216.823c.671-7.769 7.312-11.361 14.399-11.177a8 8 0 0 0 0-16c-15.376-.167-28.955 9.707-30.34 25.753L.03 358.135c-.006.256-.016.512-.03.768V440c0 15.439 12.561 28 28 28h412c15.439 0 28-12.561 28-28v-81.097c0-4.418-3.582-7.903-8-7.903zm-8 89c0 6.617-5.383 12-12 12H28c-6.617 0-12-5.383-12-12v-73h436z" fill="#000000" data-original="#000000"></path><path d="M198.976 213.943H79.815a8 8 0 0 1-8-8V52.752c0-7.08 9.013-10.677 13.868-5.438l13.213 14.257 14.484-14.478a8.002 8.002 0 0 1 11.312 0l14.705 14.699 14.705-14.699a8.002 8.002 0 0 1 11.312 0l14.484 14.478 13.212-14.257c4.841-5.226 13.868-1.655 13.868 5.438v153.191a8.002 8.002 0 0 1-8.002 8zm-111.161-16h103.161V73.155l-4.992 5.386c-3.037 3.278-8.362 3.382-11.523.221l-14.705-14.699-14.705 14.699a8.002 8.002 0 0 1-11.312 0l-14.705-14.699-14.705 14.699c-3.163 3.161-8.485 3.059-11.523-.221l-4.992-5.387v124.789z" fill="#000000" data-original="#000000"></path><path d="M163.212 145.488h-47.634a8 8 0 0 1 0-16h47.634a8 8 0 0 1 0 16zM163.212 112.278h-47.634a8 8 0 0 1 0-16h47.634a8 8 0 0 1 0 16zM163.212 178.698h-47.634a8 8 0 0 1 0-16h47.634a8 8 0 0 1 0 16zM391.234 234.816H265.975a8 8 0 0 1-8-8v-58.963a8 8 0 0 1 8-8h125.259a8 8 0 0 1 8 8v58.963a8 8 0 0 1-8 8zm-117.259-16h109.259v-42.963H273.975zM286.848 274.326h-20.143a8 8 0 0 1 0-16h20.143a8 8 0 0 1 0 16zM339.406 274.326h-20.143a8 8 0 0 1 0-16h20.143a8 8 0 0 1 0 16zM391.964 274.326h-20.143a8 8 0 0 1 0-16h20.143a8 8 0 0 1 0 16zM286.848 315.838h-20.143a8 8 0 0 1 0-16h20.143a8 8 0 0 1 0 16zM339.406 315.838h-20.143a8 8 0 0 1 0-16h20.143a8 8 0 0 1 0 16zM391.964 315.838h-20.143a8 8 0 0 1 0-16h20.143a8 8 0 0 1 0 16zM198.976 315.838H79.815a8 8 0 0 1-8-8v-55.513a8 8 0 0 1 8-8h119.161a8 8 0 0 1 8 8v55.513a8 8 0 0 1-8 8zm-111.161-16h103.161v-39.513H87.815z" fill="#000000" data-original="#000000"></path></g></svg>