<svg xmlns="http://www.w3.org/2000/svg" version="1.1" xmlns:xlink="http://www.w3.org/1999/xlink" xmlns:svgjs="http://svgjs.com/svgjs" width="512" height="512" x="0" y="0" viewBox="0 0 32 32" style="enable-background:new 0 0 512 512" xml:space="preserve" class=""><g><g data-name="cart, shop, buy, retail"><path d="M24 23a3 3 0 1 0 3 3 3.003 3.003 0 0 0-3-3Zm0 4a1 1 0 1 1 1-1 1.001 1.001 0 0 1-1 1Z" fill="#000000" data-original="#000000" class=""></path><path d="M18 23h-8a1 1 0 0 1 0-2h16a1 1 0 0 0 .986-.835l2-12A1 1 0 0 0 28 7H12a1 1 0 0 0 0 2h14.82l-1.667 10h-12.46L6.937 3.649A1 1 0 0 0 6 3H4a1 1 0 0 0 0 2h1.307l5.25 14H10a2.99 2.99 0 0 0-.78 5.882 3.005 3.005 0 1 0 5.596.118H18a1 1 0 0 0 0-2Zm-5 3a1 1 0 1 1-1-1 1.001 1.001 0 0 1 1 1Z" fill="#000000" data-original="#000000" class=""></path></g></g></svg>